PathFileType	4	(X/Y/Z)	F:\MotionCapture\20160217\3\Generated_files\EMG_Fprce_test07-Dynamic.trc
DataRate	CameraRate	NumFrames	NumMarkers	Units	OrigDataRate	OrigDataStartFrame	OrigNumFrames
120.00	120.00	       4	39	mm	120.00	1	       751
Frame#	Time	Top.Head			Front.Head			Rear.Head			R.Shoulder			R.Offset			R.Elbow			R.Wrist			L.Shoulder			L.Elbow			L.Wrist			R.ASIS			L.ASIS			V.Sacral			R.Thigh			R.Knee			R.Shank			R.Ankle			R.Heel			R.Toe			L.Thigh			L.Knee			L.Shank			L.Ankle			L.Heel			L.Toe			R1			R2			R3			R4			R5			R6			R7			L1			L2			L3			L4			L5			L6			L7			V_Mid_ASIS			V_Pelvis_Origin			V_R.Hip_JC			V_L.Hip_JC			V_R.Knee_JC			V_L.Knee_JC			V_R.Ankle_JC			V_L.Ankle_JC			V_Mid_Hip			V_Mid_Shoulder			V_R.Hand			V_L.Hand			V_R.Toe_Offset_Static			V_L.Toe_Offset_Static			V_R.Toe_Offset			V_L.Toe_Offset			
		X1	Y1	Z1	X2	Y2	Z2	X3	Y3	Z3	X4	Y4	Z4	X5	Y5	Z5	X6	Y6	Z6	X7	Y7	Z7	X8	Y8	Z8	X9	Y9	Z9	X10	Y10	Z10	X11	Y11	Z11	X12	Y12	Z12	X13	Y13	Z13	X14	Y14	Z14	X15	Y15	Z15	X16	Y16	Z16	X17	Y17	Z17	X18	Y18	Z18	X19	Y19	Z19	X20	Y20	Z20	X21	Y21	Z21	X22	Y22	Z22	X23	Y23	Z23	X24	Y24	Z24	X25	Y25	Z25	X26	Y26	Z26	X27	Y27	Z27	X28	Y28	Z28	X29	Y29	Z29	X30	Y30	Z30	X31	Y31	Z31	X32	Y32	Z32	X33	Y33	Z33	X34	Y34	Z34	X35	Y35	Z35	X36	Y36	Z36	X37	Y37	Z37	X38	Y38	Z38	X39	Y39	Z39	

1	0.000	2749.40576	133.57838	1743.20984	2626.28931	126.86312	1677.81799	2846.58447	131.75232	1658.33679	2754.47461	329.51163	1428.46436	2875.64893	57.20843	1278.38110	2743.62939	414.21088	1096.75757	2618.57520	382.13034	869.03845	2731.98047	-82.20484	1436.42017	2709.71313	-160.96039	1104.45483	2596.85645	-109.11035	878.44171	2655.73218	279.03986	960.89008	2648.15186	-11.90388	958.12988	2874.61841	124.49332	949.12518	2625.67969	250.66333	582.05304	2696.67383	292.71191	476.86273	2717.20825	229.92461	239.17577	2788.91968	304.05206	82.06336	2853.71094	241.14493	50.48793	2642.98145	295.82159	47.93086	2612.24121	27.10977	633.75885	2704.80225	-30.29493	476.46393	2698.91748	38.58367	332.69128	2772.87061	-37.00142	73.88500	2836.35840	19.86595	51.60070	2629.70801	-29.75660	48.68319	2594.35400	279.79700	44.93840	2636.95288	259.31052	53.44435	2732.90723	218.31790	59.79943	2806.22803	213.94940	46.50568	2826.54614	286.41028	53.45118	2749.75952	315.53522	40.74536	2684.80640	338.95444	43.47174	2583.61523	-4.55005	42.77436	2619.21484	9.58380	51.79926	2713.51343	52.78740	53.53226	2797.74756	52.39513	50.29073	2810.78687	-23.44404	55.86139	2735.33130	-48.31240	42.14136	2671.81812	-63.12277	46.65609																																																	2462.12744	304.78851	772.51660	
2	0.008	2749.29932	133.52519	1743.23584	2626.05933	126.81930	1677.81396	2846.48779	131.76764	1658.34644	2754.36426	329.58624	1428.31189	2875.45239	57.22020	1278.36060	2743.85791	414.40634	1096.88855	2618.74561	382.23303	868.92224	2731.67310	-82.29605	1436.31860	2709.19922	-160.92418	1104.04419	2596.40942	-108.77660	878.63190	2655.32129	279.01260	960.68262	2648.04126	-12.01647	957.98608	2874.48047	124.37603	949.16608	2625.59668	250.62228	582.05518	2696.57227	292.63376	476.82230	2716.19409	229.58551	239.49538	2789.06812	304.22101	82.21707	2853.71143	241.09569	50.46135	2642.91113	295.65839	47.87503	2612.15967	27.09390	633.79132	2704.80688	-30.31333	476.41476	2698.62573	38.69511	332.72708	2772.85767	-36.95531	73.92110	2836.35107	19.86893	51.62851	2629.72241	-29.82965	48.68810	2594.28296	279.75806	44.84222	2636.93066	259.33774	53.47038	2732.88965	218.22363	59.75649	2806.23047	213.91524	46.53062	2826.49683	286.36368	53.42046	2749.74390	315.41779	40.60092	2684.84766	338.97272	43.49704	2583.57935	-4.56280	42.73959	2619.17896	9.58953	51.72575	2713.61377	52.85007	53.54234	2797.73682	52.41342	50.23312	2809.87329	-21.22566	54.98973	2735.31763	-48.29409	42.12474	2671.73071	-62.93349	46.50114																																																	2462.55835	304.87396	772.47998	
3	0.017	2749.07446	133.35107	1742.89893	2625.92114	126.66116	1677.88293	2846.36011	131.71756	1658.36279	2754.19507	329.44946	1428.46570	2875.20044	57.24942	1278.33582	2744.07886	414.54877	1096.98328	2619.07935	382.32437	868.93140	2731.37964	-82.35310	1436.35718	2708.84399	-160.99228	1104.01868	2595.43896	-108.20532	878.60217	2655.09912	278.91608	960.33484	2647.54224	-12.09398	958.08740	2874.35181	124.31876	949.20740	2625.54248	250.68954	582.06122	2696.54614	292.69470	476.76852	2717.15625	229.91231	239.01237	2788.98975	304.16116	82.17767	2853.72388	241.10580	50.48014	2642.88232	295.64636	47.89019	2612.08936	27.09789	633.75403	2704.72046	-30.31742	476.37564	2698.06543	38.67119	332.79889	2772.83325	-36.93548	73.91675	2836.32568	19.89951	51.62188	2629.74976	-29.78632	48.70658	2594.33105	279.70007	44.87232	2636.93848	259.34256	53.48512	2732.92896	218.32474	59.70015	2806.20288	213.98361	46.43449	2826.52905	286.25043	53.46444	2749.75732	315.40646	40.78237	2684.87305	339.02020	43.51842	2583.54126	-4.58730	42.73642	2619.12622	9.59858	51.71512	2713.55957	52.84991	53.50989	2797.74438	52.41476	50.27217	2809.78516	-21.12691	54.80335	2735.28418	-48.23158	42.09194	2671.72925	-62.98151	46.50381																																																	2463.10742	305.02850	772.53101	
4	0.025	2748.96436	133.34331	1742.97913	2625.60645	126.83260	1678.09521	2846.16504	131.52332	1658.33557	2753.96216	329.41370	1428.51538	2875.05688	57.33794	1278.35596	2744.34985	414.88730	1097.09155	2619.28345	382.49020	869.08398	2731.24609	-82.41080	1436.26379	2708.60571	-161.15742	1104.23926	2594.92432	-107.99117	878.78223	2654.94727	278.92911	960.73724	2647.29199	-12.20941	958.07562	2874.23682	124.21811	949.25171	2625.49780	250.64261	581.98932	2696.68652	292.63867	476.93796	2717.17651	229.94757	239.14168	2789.00220	304.12778	82.13171	2853.75317	241.09859	50.51799	2642.90698	295.71567	47.89868	2612.02686	27.11276	633.73438	2704.68066	-30.28457	476.40900	2698.13794	38.69394	332.75262	2772.39160	-36.39647	72.90991	2836.30762	19.91332	51.57191	2629.71240	-29.75464	48.66952	2594.31470	279.83044	44.97440	2636.95386	259.33316	53.43176	2732.93945	218.30617	59.71970	2806.18433	213.96220	46.45687	2826.54175	286.31873	53.44609	2749.74146	315.54123	40.74917	2684.84863	339.01062	43.53724	2583.54492	-4.55716	42.72601	2619.14136	9.73428	51.72199	2713.45679	52.79487	53.51535	2797.74854	52.44262	50.23080	2809.86279	-21.19323	54.97060	2735.35474	-48.38618	42.26026	2671.75195	-63.01402	46.55807																																																	2463.46704	305.18713	772.51312	
